<?xml version="1.0" encoding="UTF-8"?>
<svg id="Layer_1" xmlns="http://www.w3.org/2000/svg" version="1.1" viewBox="0 0 1080 1080">
  <!-- Generator: Adobe Illustrator 30.3.0, SVG Export Plug-In . SVG Version: 2.1.3 Build 182)  -->
  <defs>
    <style>
      .st0 {
        fill: #fff;
      }
    </style>
  </defs>
  <rect x="-.35" y="529.05" width="1080.65" height="550.99"/>
  <g>
    <path d="M578.19,221.72c-1.43-3.14-3.4-5.87-5.93-8.18-2.52-2.31-5.51-4.1-8.96-5.36-.24-.09-.48-.16-.72-.24-.21-.77-.44-1.52-.7-2.26-1.21-3.38-2.98-6.35-5.29-8.89-2.31-2.55-5-4.52-8.07-5.93s-6.44-2.11-10.11-2.11-7.21.71-10.36,2.14c-3.14,1.43-5.87,3.4-8.18,5.93-2.31,2.52-4.1,5.51-5.36,8.96-.29.81-.55,1.63-.78,2.47-3.22,1.21-6.06,2.92-8.51,5.14-2.55,2.31-4.52,5-5.93,8.07-1.41,3.07-2.11,6.44-2.11,10.11s.71,7.21,2.14,10.36c1.43,3.14,3.4,5.87,5.93,8.18,2.52,2.31,5.51,4.1,8.96,5.36.24.09.48.16.72.24.21.77.44,1.52.7,2.26,1.21,3.38,2.98,6.35,5.29,8.89,2.31,2.55,5,4.52,8.07,5.93s6.44,2.11,10.11,2.11,7.21-.71,10.36-2.14c3.14-1.43,5.87-3.4,8.18-5.93,2.31-2.52,4.1-5.51,5.36-8.96.29-.81.55-1.63.78-2.47,3.22-1.21,6.06-2.92,8.51-5.14,2.55-2.31,4.52-5,5.93-8.07s2.11-6.44,2.11-10.11-.71-7.21-2.14-10.36h0ZM558.2,216.32c0,2.43-.32,4.77-.96,7.04-.34,1.21-.76,2.36-1.25,3.47-.42.96-.9,1.89-1.43,2.78-.21.34-.42.67-.64.99.65.85,1.28,1.76,1.91,2.76.51.81.97,1.68,1.39,2.59.48,1.04.9,2.13,1.25,3.3.67,2.19,1,4.52,1,7,0,1.68-.13,3.29-.4,4.83-2.01.51-4.11.77-6.31.77-2.43,0-4.77-.32-7.04-.96-.31-.09-.61-.19-.92-.29-1.91-.61-3.69-1.4-5.33-2.39-.11-.07-.21-.14-.32-.21-.14.09-.28.19-.43.28-1.67,1.05-3.56,1.9-5.65,2.56-.08.03-.16.06-.25.08-2.19.67-4.52,1-7,1-2.19,0-4.26-.23-6.21-.67-.19-1.28-.29-2.58-.29-3.93,0-2.43.32-4.77.96-7.04.34-1.21.76-2.36,1.25-3.47.42-.96.9-1.89,1.43-2.78.21-.34.42-.67.64-.99-.65-.85-1.28-1.76-1.91-2.76-.51-.81-.97-1.68-1.39-2.59-.48-1.04-.9-2.13-1.25-3.3-.67-2.19-1-4.52-1-7,0-1.68.13-3.29.4-4.83,2.01-.51,4.11-.77,6.31-.77,2.43,0,4.77.32,7.04.96.31.09.61.19.92.29,1.91.61,3.69,1.4,5.33,2.39.11.07.21.14.32.21.14-.09.28-.19.43-.28,1.67-1.05,3.56-1.9,5.65-2.56.08-.03.16-.06.25-.08,2.19-.67,4.52-1,7-1,2.19,0,4.26.23,6.21.67.19,1.28.29,2.59.29,3.93h0ZM523.62,201.14c1.76-2.12,3.89-3.75,6.39-4.89s5.3-1.71,8.39-1.71c2.9,0,5.58.56,8.04,1.68,2.45,1.12,4.55,2.68,6.29,4.68,1.44,1.66,2.61,3.54,3.51,5.64-1.36-.16-2.76-.24-4.19-.24-2.86,0-5.6.38-8.21,1.14-1.86.54-3.59,1.19-5.21,1.95-1.64-.74-3.36-1.38-5.18-1.92-2.69-.79-5.44-1.18-8.25-1.18-1.71,0-3.36.12-4.95.34.89-2.01,2.02-3.84,3.38-5.48h-.01ZM509.58,246.36c-2.12-1.76-3.75-3.89-4.89-6.39s-1.71-5.3-1.71-8.39c0-2.9.56-5.58,1.68-8.04,1.12-2.45,2.68-4.55,4.68-6.29,1.03-.9,2.15-1.69,3.36-2.38-.04.71-.07,1.43-.07,2.16,0,2.86.38,5.6,1.14,8.21.76,2.62,1.74,5,2.93,7.14.13.24.26.46.39.69-.81,1.75-1.51,3.6-2.08,5.56-.79,2.69-1.18,5.44-1.18,8.25,0,.78.03,1.54.08,2.3-1.56-.79-3-1.74-4.32-2.83h0ZM553.9,262.51c-1.76,2.12-3.89,3.75-6.39,4.89s-5.3,1.71-8.39,1.71c-2.9,0-5.58-.56-8.04-1.68-2.45-1.12-4.55-2.68-6.29-4.68-1.44-1.66-2.61-3.54-3.51-5.64,1.36.16,2.76.24,4.19.24,2.86,0,5.6-.38,8.21-1.14,1.86-.54,3.59-1.19,5.21-1.95,1.64.74,3.36,1.38,5.18,1.92,2.69.79,5.44,1.18,8.25,1.18,1.71,0,3.36-.12,4.95-.34-.89,2.01-2.02,3.84-3.38,5.48h.01ZM572.87,240.11c-1.12,2.45-2.68,4.55-4.68,6.29-1.03.9-2.15,1.69-3.36,2.38.04-.71.07-1.43.07-2.16,0-2.86-.38-5.6-1.14-8.21-.76-2.62-1.74-5-2.93-7.14-.13-.24-.26-.46-.39-.69.81-1.75,1.51-3.6,2.08-5.56.79-2.69,1.18-5.44,1.18-8.25,0-.78-.03-1.54-.08-2.3,1.56.79,3,1.74,4.32,2.83,2.12,1.76,3.75,3.89,4.89,6.39s1.71,5.3,1.71,8.39c0,2.9-.56,5.58-1.68,8.04h0Z"/>
    <g>
      <path d="M309.49,344.19c2.36-2.05,5.1-3.64,8.23-4.77,3.12-1.12,6.45-1.69,10-1.69,2.87,0,5.64.38,8.31,1.14,2.67.76,5.13,1.81,7.38,3.16s4.19,2.9,5.82,4.64l4.13-5.57c-1.69-1.8-3.88-3.43-6.58-4.89-2.7-1.46-5.64-2.66-8.82-3.59s-6.43-1.39-9.75-1.39c-4.73,0-9.08.72-13.08,2.15-3.99,1.43-7.5,3.52-10.5,6.24-3.01,2.73-5.34,5.91-7,9.53-1.66,3.63-2.49,7.61-2.49,11.94s.84,8.52,2.53,12.23c1.69,3.71,4.02,6.93,7,9.66s6.51,4.84,10.59,6.33,8.51,2.24,13.29,2.24c3.38,0,6.61-.45,9.7-1.35,3.09-.9,5.91-2.05,8.44-3.46s4.53-2.87,5.99-4.39l-3.12-5.48c-1.52,1.35-3.3,2.67-5.36,3.97-2.05,1.29-4.37,2.33-6.96,3.12s-5.34,1.18-8.27,1.18c-3.83,0-7.36-.58-10.59-1.73-3.24-1.15-6.1-2.77-8.61-4.85-2.5-2.08-4.43-4.6-5.78-7.55s-2.03-6.26-2.03-9.91c0-3.43.66-6.59,1.98-9.49s3.16-5.37,5.53-7.43h.02,0Z"/>
      <path d="M423.31,363.64c0,4.05-.9,7.68-2.7,10.88-1.8,3.21-4.3,5.71-7.51,7.51-3.21,1.8-6.89,2.7-11.05,2.7-3.94,0-7.48-.9-10.63-2.7s-5.63-4.3-7.42-7.51c-1.8-3.21-2.7-6.83-2.7-10.88v-31.98h-6.58v32.4c0,5.23,1.15,9.9,3.46,14.01s5.5,7.34,9.58,9.7,8.85,3.54,14.3,3.54,10.34-1.18,14.47-3.54,7.35-5.6,9.66-9.7c2.31-4.11,3.46-8.77,3.46-14.01v-32.4h-6.33v31.98h0Z"/>
      <polygon points="463.31 331.66 456.73 331.66 456.73 390.72 500.18 390.72 500.18 384.31 463.31 384.31 463.31 331.66"/>
      <polygon points="514.52 338.07 535.62 338.07 535.62 390.72 542.2 390.72 542.2 338.07 564.05 338.07 564.05 331.66 514.52 331.66 514.52 338.07"/>
      <path d="M632.23,363.64c0,4.05-.9,7.68-2.7,10.88-1.8,3.21-4.3,5.71-7.51,7.51s-6.89,2.7-11.05,2.7c-3.94,0-7.48-.9-10.63-2.7s-5.63-4.3-7.43-7.51-2.7-6.83-2.7-10.88v-31.98h-6.58v32.4c0,5.23,1.15,9.9,3.46,14.01s5.5,7.34,9.58,9.7,8.84,3.54,14.3,3.54,10.34-1.18,14.47-3.54c4.13-2.36,7.35-5.6,9.66-9.7,2.31-4.11,3.46-8.77,3.46-14.01v-32.4h-6.33v31.98h0Z"/>
      <path d="M704.66,365.37c2.95-1.6,5.3-3.77,7.05-6.5,1.74-2.73,2.62-5.86,2.62-9.41s-.84-6.4-2.53-9.07-3.94-4.79-6.75-6.37c-2.81-1.57-5.99-2.36-9.53-2.36h-29.87v59.06h6.58v-22.95h20.81l16.32,22.95h8.1l-16.88-23.72c1.44-.39,2.81-.93,4.1-1.63h-.02,0ZM672.22,338.07h21.77c2.47,0,4.73.51,6.75,1.52s3.63,2.39,4.81,4.13,1.77,3.68,1.77,5.82c0,2.25-.56,4.26-1.69,6.03s-2.67,3.18-4.64,4.22c-1.97,1.04-4.22,1.56-6.75,1.56h-22.02v-23.29h0Z"/>
      <polygon points="740.56 390.72 784.69 390.72 784.69 384.31 747.14 384.31 747.14 363.55 780.13 363.55 780.13 357.14 747.14 357.14 747.14 338.07 784.86 338.07 784.86 331.66 740.56 331.66 740.56 390.72"/>
    </g>
  </g>
  <g>
    <path class="st0" d="M578.19,731.69c-1.43-3.14-3.4-5.87-5.93-8.18-2.52-2.31-5.51-4.1-8.96-5.36-.24-.09-.48-.16-.72-.24-.21-.77-.44-1.52-.7-2.26-1.21-3.38-2.98-6.35-5.29-8.89-2.31-2.55-5-4.52-8.07-5.93s-6.44-2.11-10.11-2.11-7.21.71-10.36,2.14c-3.14,1.43-5.87,3.4-8.18,5.93-2.31,2.52-4.1,5.51-5.36,8.96-.29.81-.55,1.63-.78,2.47-3.22,1.21-6.06,2.92-8.51,5.14-2.55,2.31-4.52,5-5.93,8.07-1.41,3.07-2.11,6.44-2.11,10.11s.71,7.21,2.14,10.36c1.43,3.14,3.4,5.87,5.93,8.18,2.52,2.31,5.51,4.1,8.96,5.36.24.09.48.16.72.24.21.77.44,1.52.7,2.26,1.21,3.38,2.98,6.35,5.29,8.89,2.31,2.55,5,4.52,8.07,5.93s6.44,2.11,10.11,2.11,7.21-.71,10.36-2.14c3.14-1.43,5.87-3.4,8.18-5.93,2.31-2.52,4.1-5.51,5.36-8.96.29-.81.55-1.63.78-2.47,3.22-1.21,6.06-2.92,8.51-5.14,2.55-2.31,4.52-5,5.93-8.07s2.11-6.44,2.11-10.11-.71-7.21-2.14-10.36h0ZM558.2,726.29c0,2.43-.32,4.77-.96,7.04-.34,1.21-.76,2.36-1.25,3.47-.42.96-.9,1.89-1.43,2.78-.21.34-.42.67-.64.99.65.85,1.28,1.76,1.91,2.76.51.81.97,1.68,1.39,2.59.48,1.04.9,2.13,1.25,3.3.67,2.19,1,4.52,1,7,0,1.68-.13,3.29-.4,4.83-2.01.51-4.11.77-6.31.77-2.43,0-4.77-.32-7.04-.96-.31-.09-.61-.19-.92-.29-1.91-.61-3.69-1.4-5.33-2.39-.11-.07-.21-.14-.32-.21-.14.09-.28.19-.43.28-1.67,1.05-3.56,1.9-5.65,2.56-.08.03-.16.06-.25.08-2.19.67-4.52,1-7,1-2.19,0-4.26-.23-6.21-.67-.19-1.28-.29-2.58-.29-3.93,0-2.43.32-4.77.96-7.04.34-1.21.76-2.36,1.25-3.47.42-.96.9-1.89,1.43-2.78.21-.34.42-.67.64-.99-.65-.85-1.28-1.76-1.91-2.76-.51-.81-.97-1.68-1.39-2.59-.48-1.04-.9-2.13-1.25-3.3-.67-2.19-1-4.52-1-7,0-1.68.13-3.29.4-4.83,2.01-.51,4.11-.77,6.31-.77,2.43,0,4.77.32,7.04.96.31.09.61.19.92.29,1.91.61,3.69,1.4,5.33,2.39.11.07.21.14.32.21.14-.09.28-.19.43-.28,1.67-1.05,3.56-1.9,5.65-2.56.08-.03.16-.06.25-.08,2.19-.67,4.52-1,7-1,2.19,0,4.26.23,6.21.67.19,1.28.29,2.59.29,3.93h0ZM523.62,711.11c1.76-2.12,3.89-3.75,6.39-4.89s5.3-1.71,8.39-1.71c2.9,0,5.58.56,8.04,1.68,2.45,1.12,4.55,2.68,6.29,4.68,1.44,1.66,2.61,3.54,3.51,5.64-1.36-.16-2.76-.24-4.19-.24-2.86,0-5.6.38-8.21,1.14-1.86.54-3.59,1.19-5.21,1.95-1.64-.74-3.36-1.38-5.18-1.92-2.69-.79-5.44-1.18-8.25-1.18-1.71,0-3.36.12-4.95.34.89-2.01,2.02-3.84,3.38-5.48h-.01ZM509.58,756.33c-2.12-1.76-3.75-3.89-4.89-6.39s-1.71-5.3-1.71-8.39c0-2.9.56-5.58,1.68-8.04,1.12-2.45,2.68-4.55,4.68-6.29,1.03-.9,2.15-1.69,3.36-2.38-.04.71-.07,1.43-.07,2.16,0,2.86.38,5.6,1.14,8.21.76,2.62,1.74,5,2.93,7.14.13.24.26.46.39.69-.81,1.75-1.51,3.6-2.08,5.56-.79,2.69-1.18,5.44-1.18,8.25,0,.78.03,1.54.08,2.3-1.56-.79-3-1.74-4.32-2.83h0ZM553.9,772.48c-1.76,2.12-3.89,3.75-6.39,4.89s-5.3,1.71-8.39,1.71c-2.9,0-5.58-.56-8.04-1.68-2.45-1.12-4.55-2.68-6.29-4.68-1.44-1.66-2.61-3.54-3.51-5.64,1.36.16,2.76.24,4.19.24,2.86,0,5.6-.38,8.21-1.14,1.86-.54,3.59-1.19,5.21-1.95,1.64.74,3.36,1.38,5.18,1.92,2.69.79,5.44,1.18,8.25,1.18,1.71,0,3.36-.12,4.95-.34-.89,2.01-2.02,3.84-3.38,5.48h.01ZM572.87,750.08c-1.12,2.45-2.68,4.55-4.68,6.29-1.03.9-2.15,1.69-3.36,2.38.04-.71.07-1.43.07-2.16,0-2.86-.38-5.6-1.14-8.21-.76-2.62-1.74-5-2.93-7.14-.13-.24-.26-.46-.39-.69.81-1.75,1.51-3.6,2.08-5.56.79-2.69,1.18-5.44,1.18-8.25,0-.78-.03-1.54-.08-2.3,1.56.79,3,1.74,4.32,2.83,2.12,1.76,3.75,3.89,4.89,6.39s1.71,5.3,1.71,8.39c0,2.9-.56,5.58-1.68,8.04h0Z"/>
    <g>
      <path class="st0" d="M309.49,854.16c2.36-2.05,5.1-3.64,8.23-4.77,3.12-1.12,6.45-1.69,10-1.69,2.87,0,5.64.38,8.31,1.14,2.67.76,5.13,1.81,7.38,3.16s4.19,2.9,5.82,4.64l4.13-5.57c-1.69-1.8-3.88-3.43-6.58-4.89-2.7-1.46-5.64-2.66-8.82-3.59s-6.43-1.39-9.75-1.39c-4.73,0-9.08.72-13.08,2.15-3.99,1.43-7.5,3.52-10.5,6.24-3.01,2.73-5.34,5.91-7,9.53-1.66,3.63-2.49,7.61-2.49,11.94s.84,8.52,2.53,12.23c1.69,3.71,4.02,6.93,7,9.66s6.51,4.84,10.59,6.33,8.51,2.24,13.29,2.24c3.38,0,6.61-.45,9.7-1.35,3.09-.9,5.91-2.05,8.44-3.46s4.53-2.87,5.99-4.39l-3.12-5.48c-1.52,1.35-3.3,2.67-5.36,3.97-2.05,1.29-4.37,2.33-6.96,3.12s-5.34,1.18-8.27,1.18c-3.83,0-7.36-.58-10.59-1.73-3.24-1.15-6.1-2.77-8.61-4.85-2.5-2.08-4.43-4.6-5.78-7.55s-2.03-6.26-2.03-9.91c0-3.43.66-6.59,1.98-9.49s3.16-5.37,5.53-7.43h.02,0Z"/>
      <path class="st0" d="M423.31,873.61c0,4.05-.9,7.68-2.7,10.88-1.8,3.21-4.3,5.71-7.51,7.51-3.21,1.8-6.89,2.7-11.05,2.7-3.94,0-7.48-.9-10.63-2.7s-5.63-4.3-7.42-7.51c-1.8-3.21-2.7-6.83-2.7-10.88v-31.98h-6.58v32.4c0,5.23,1.15,9.9,3.46,14.01s5.5,7.34,9.58,9.7,8.85,3.54,14.3,3.54,10.34-1.18,14.47-3.54,7.35-5.6,9.66-9.7c2.31-4.11,3.46-8.77,3.46-14.01v-32.4h-6.33v31.98h0Z"/>
      <polygon class="st0" points="463.31 841.63 456.73 841.63 456.73 900.69 500.18 900.69 500.18 894.28 463.31 894.28 463.31 841.63"/>
      <polygon class="st0" points="514.52 848.04 535.62 848.04 535.62 900.69 542.2 900.69 542.2 848.04 564.05 848.04 564.05 841.63 514.52 841.63 514.52 848.04"/>
      <path class="st0" d="M632.23,873.61c0,4.05-.9,7.68-2.7,10.88-1.8,3.21-4.3,5.71-7.51,7.51s-6.89,2.7-11.05,2.7c-3.94,0-7.48-.9-10.63-2.7s-5.63-4.3-7.43-7.51-2.7-6.83-2.7-10.88v-31.98h-6.58v32.4c0,5.23,1.15,9.9,3.46,14.01s5.5,7.34,9.58,9.7,8.84,3.54,14.3,3.54,10.34-1.18,14.47-3.54c4.13-2.36,7.35-5.6,9.66-9.7,2.31-4.11,3.46-8.77,3.46-14.01v-32.4h-6.33v31.98h0Z"/>
      <path class="st0" d="M704.66,875.34c2.95-1.6,5.3-3.77,7.05-6.5,1.74-2.73,2.62-5.86,2.62-9.41s-.84-6.4-2.53-9.07-3.94-4.79-6.75-6.37c-2.81-1.57-5.99-2.36-9.53-2.36h-29.87v59.06h6.58v-22.95h20.81l16.32,22.95h8.1l-16.88-23.72c1.44-.39,2.81-.93,4.1-1.63h-.02,0ZM672.22,848.04h21.77c2.47,0,4.73.51,6.75,1.52s3.63,2.39,4.81,4.13,1.77,3.68,1.77,5.82c0,2.25-.56,4.26-1.69,6.03s-2.67,3.18-4.64,4.22c-1.97,1.04-4.22,1.56-6.75,1.56h-22.02v-23.29h0Z"/>
      <polygon class="st0" points="740.56 900.69 784.69 900.69 784.69 894.28 747.14 894.28 747.14 873.52 780.13 873.52 780.13 867.11 747.14 867.11 747.14 848.04 784.86 848.04 784.86 841.63 740.56 841.63 740.56 900.69"/>
    </g>
  </g>
</svg>